<svg width="25" height="25" viewBox="0 0 25 25" fill="none" xmlns="http://www.w3.org/2000/svg">
<path d="M22.3736 5.97094C22.4021 5.99015 22.4288 6.01103 22.4546 6.03344L22.3736 5.97094Z" fill="white"/>
<path d="M22.4546 6.03344C22.532 6.10067 22.5967 6.18166 22.6452 6.27261L22.4546 6.03344Z" fill="white"/>
<path d="M22.6452 6.27261C22.695 6.36601 22.7266 6.46772 22.7386 6.57232L22.6452 6.27261Z" fill="white"/>
<path d="M22.7386 6.57232C22.7412 6.59504 22.7429 6.6179 22.7437 6.64084L22.7386 6.57232Z" fill="white"/>
<path d="M22.7437 6.64084C22.744 6.64941 22.7441 6.65799 22.7441 6.66658L22.7437 6.64084Z" fill="white"/>
<path d="M22.7441 6.66658V18.3335V6.66658Z" fill="white"/>
<path fill-rule="evenodd" clip-rule="evenodd" d="M22.3736 5.97094L17.3611 2.6375C17.2248 2.54795 17.0653 2.50018 16.9022 2.5L16.8983 2.5C16.7786 2.49981 16.66 2.52581 16.5514 2.57617C16.4427 2.62654 16.3464 2.70005 16.2691 2.79156L10.9484 8.97076L7.54453 5.70847L7.4861 5.65003C7.41036 5.57516 7.32057 5.51598 7.2219 5.47592C7.16709 5.45367 7.11015 5.43756 7.0521 5.42779C7.0055 5.41991 6.95818 5.41613 6.91068 5.41653C6.7304 5.41688 6.55505 5.47541 6.41069 5.5834L3.09018 8.07442L3.07756 8.0834C3.08164 8.08035 3.08593 8.07737 3.09018 8.07442L3.0964 8.07008L3.07856 8.08346C2.97464 8.16065 2.8903 8.2612 2.83238 8.37699C2.77446 8.49277 2.74457 8.62055 2.74512 8.75002V16.2501L2.74512 16.2546C2.74528 16.3825 2.77514 16.5086 2.83238 16.6231C2.8903 16.7389 2.97464 16.8394 3.07856 16.9166L3.08491 16.9215C3.08905 16.9246 3.09334 16.9279 3.09747 16.9308L6.41069 19.4166C6.55505 19.5246 6.7304 19.5831 6.91068 19.5834C6.92227 19.5835 6.93426 19.5834 6.94582 19.583C7.0405 19.5797 7.13395 19.5598 7.2219 19.5242C7.32057 19.484 7.41036 19.4249 7.4861 19.3501L7.54453 19.2916L10.9484 16.0293L16.2776 22.2125C16.3933 22.3444 16.5467 22.4364 16.7161 22.4767C16.7429 22.4832 16.7702 22.4883 16.7978 22.4921C16.999 22.5196 17.2035 22.4736 17.3736 22.3625L22.3736 19.0291C22.4165 19.0004 22.456 18.9679 22.4926 18.9321C22.5506 18.8753 22.6003 18.8102 22.6399 18.7386L22.6458 18.7277C22.6538 18.7126 22.6615 18.6972 22.6686 18.6816C22.7184 18.5725 22.7442 18.4538 22.7441 18.3335V6.83594V6.66658C22.7441 6.65799 22.744 6.64941 22.7437 6.64084C22.7429 6.6179 22.7412 6.59504 22.7386 6.57232C22.7266 6.46772 22.695 6.36601 22.6452 6.27261C22.5967 6.18166 22.532 6.10067 22.4546 6.03344C22.4288 6.01103 22.4021 5.99015 22.3736 5.97094ZM17.7441 15.4873V9.51289L14.6279 12.5L17.7441 15.4873ZM6.18263 14.5027V10.4927L7.91069 12.4959L6.18263 14.5027Z" fill="white"/>
</svg>
